<?xml version="1.0" encoding="UTF-8"?>
<svg xmlns="http://www.w3.org/2000/svg" xmlns:cc="http://creativecommons.org/ns#" xmlns:dc="http://purl.org/dc/elements/1.1/" xmlns:inkscape="http://www.inkscape.org/namespaces/inkscape" xmlns:rdf="http://www.w3.org/1999/02/22-rdf-syntax-ns#" xmlns:sodipodi="http://sodipodi.sourceforge.net/DTD/sodipodi-0.dtd" xmlns:svg="http://www.w3.org/2000/svg" xmlns:xlink="http://www.w3.org/1999/xlink" width="208" height="303" viewBox="0 0 167.08643 242.66748" xml:space="preserve" id="svg2" sodipodi:version="0.32" inkscape:version="0.91 r13725" sodipodi:docname="symbols.svg" inkscape:output_extension="org.inkscape.output.svg.inkscape" version="1.0">
  <metadata id="metadata90">
    <rdf:RDF>
      <cc:Work rdf:about="">
        <dc:format>image/svg+xml</dc:format>
        <dc:type rdf:resource="http://purl.org/dc/dcmitype/StillImage" />
        <dc:title />
      </cc:Work>
    </rdf:RDF>
  </metadata>
  <defs id="defs88">
    <linearGradient id="linearGradient4561">
      <stop offset="0" id="stop4563" style="stop-color:#de5644;stop-opacity:1" />
      <stop id="stop4569" offset="0.5" style="stop-color:#da4531;stop-opacity:1" />
      <stop offset="1" id="stop4565" style="stop-color:#ce3a28;stop-opacity:1" />
    </linearGradient>
    <linearGradient id="linearGradient4551">
      <stop offset="0" id="stop4553" style="stop-color:#0aa561;stop-opacity:1" />
      <stop id="stop4559" offset="0.5" style="stop-color:#009b58;stop-opacity:1" />
      <stop offset="1" id="stop4555" style="stop-color:#00914b;stop-opacity:1" />
    </linearGradient>
    <linearGradient id="linearGradient4535">
      <stop offset="0" id="stop4537" style="stop-color:#1a6fef;stop-opacity:1" />
      <stop id="stop4547" offset="0.25" style="stop-color:#1e72ef;stop-opacity:1" />
      <stop id="stop4545" offset="0.5" style="stop-color:#166bec;stop-opacity:1" />
      <stop id="stop4543" offset="0.75" style="stop-color:#1267e9;stop-opacity:1" />
      <stop offset="1" id="stop4539" style="stop-color:#1063e5;stop-opacity:0.87" />
    </linearGradient>
    <linearGradient id="linearGradient4525">
      <stop offset="0" id="stop4527" style="stop-color:#ffc01a;stop-opacity:1" />
      <stop id="stop4533" offset="0.5" style="stop-color:#ffba03;stop-opacity:1" />
      <stop offset="1" id="stop4529" style="stop-color:#ffb300;stop-opacity:1" />
    </linearGradient>
    <linearGradient id="linearGradient4511">
      <stop offset="0" id="stop4513" style="stop-color:#de5744;stop-opacity:1" />
      <stop id="stop4523" offset="0.5" style="stop-color:#db4632;stop-opacity:1" />
      <stop offset="1" id="stop4515" style="stop-color:#d13d29;stop-opacity:1" />
    </linearGradient>
    <linearGradient id="linearGradient4501">
      <stop offset="0" id="stop4503" style="stop-color:#196eef;stop-opacity:1" />
      <stop id="stop4509" offset="0.5" style="stop-color:#186dee;stop-opacity:1" />
      <stop offset="1" id="stop4505" style="stop-color:#1065e7;stop-opacity:1" />
    </linearGradient>
    <linearGradient xlink:href="#linearGradient4501" id="linearGradient4507" x1="-4561.09" y1="2932" x2="-4561.09" y2="3070.15" gradientUnits="userSpaceOnUse" gradientTransform="matrix(1.35086,0,0,1.35086,1626.5564,-1095.5023)" />
    <linearGradient xlink:href="#linearGradient4511" id="linearGradient4517" x1="-4444.64" y1="2978.97" x2="-4444.64" y2="3068.3" gradientUnits="userSpaceOnUse" gradientTransform="matrix(1.35086,0,0,1.35086,1626.5564,-1095.5023)" />
    <linearGradient xlink:href="#linearGradient4525" id="linearGradient4531" x1="-4342.5" y1="2979.15" x2="-4342.5" y2="3068.11" gradientUnits="userSpaceOnUse" gradientTransform="matrix(1.35086,0,0,1.35086,1626.5564,-1095.5023)" />
    <linearGradient xlink:href="#linearGradient4535" id="linearGradient4541" x1="-4248.93" y1="2978.97" x2="-4248.93" y2="3122.4" gradientUnits="userSpaceOnUse" gradientTransform="matrix(1.35086,0,0,1.35086,1626.5564,-1095.5023)" />
    <linearGradient xlink:href="#linearGradient4551" id="linearGradient4557" x1="-4184.29" y1="2934.51" x2="-4184.29" y2="3065.79" gradientUnits="userSpaceOnUse" gradientTransform="matrix(1.35086,0,0,1.35086,1626.5564,-1095.5023)" />
    <linearGradient xlink:href="#linearGradient4561" id="linearGradient4567" x1="-4118.39" y1="2978.97" x2="-4118.39" y2="3068.11" gradientUnits="userSpaceOnUse" gradientTransform="matrix(1.3445826,0,0,1.3445826,1595.3814,-1097.7406)" />
    <linearGradient inkscape:collect="always" xlink:href="#linearGradient4561" id="linearGradient3411" gradientUnits="userSpaceOnUse" gradientTransform="matrix(1.3679596,0,0,1.3679596,1624.1163,-1212.1094)" x1="-4118.39" y1="2978.97" x2="-4118.39" y2="3068.11" />
  </defs>
  <sodipodi:namedview inkscape:window-height="1027" inkscape:window-width="1601" inkscape:pageshadow="2" inkscape:pageopacity="0.0" guidetolerance="10.0" gridtolerance="10.0" objecttolerance="10.0" borderopacity="1.0" bordercolor="#666666" pagecolor="#ffffff" id="base" inkscape:zoom="1.7576595" inkscape:cx="10.064268" inkscape:cy="81.594961" inkscape:window-x="71" inkscape:window-y="-8" inkscape:current-layer="svg2" inkscape:showpageshadow="false" width="208px" height="303px" showgrid="false" inkscape:window-maximized="1" />
  <path style="fill:url(#linearGradient3411);fill-opacity:1;stroke:none;stroke-width:1.49999988;stroke-linecap:round;stroke-linejoin:round;stroke-miterlimit:4;stroke-dasharray:none;stroke-opacity:1" d="m 61.571172,4.0636716 c -0.02644,0.90715 -0.564802,4.309175 -6.431485,9.9395664 -5.646239,5.418856 -8.282856,6.069377 -9.075251,6.126441 0.792395,0.05705 3.429012,0.707595 9.075251,6.126431 5.866683,5.63039 6.405044,9.032405 6.431485,9.939565 0.02646,-0.907149 0.56481,-4.309165 6.431489,-9.939565 5.646255,-5.418846 8.282865,-6.069388 9.075265,-6.126431 -0.7924,-0.05705 -3.42901,-0.707595 -9.075265,-6.126441 C 62.135982,8.3728566 61.597632,4.9708316 61.571172,4.0636716 Z" id="path2243" inkscape:connector-curvature="0" />
  <path id="b" d="m 16.066363,5.9390476 c -4.28798,0.009 -7.7747014,3.673848 -7.7458364,8.1698574 0.05972,9.535482 12.0358084,16.431288 15.5663254,23.962129 3.530517,-7.530841 15.531489,-14.426647 15.59121,-23.962129 0.02886,-4.4960094 -3.457856,-8.1608994 -7.745837,-8.1698574 -4.286986,-0.009 -7.832433,3.640006 -7.845373,8.1449734 -0.01294,-4.5049674 -3.533503,-8.1539324 -7.820489,-8.1449734 z" style="fill:url(#linearGradient4567)" inkscape:connector-curvature="0" />
  <path style="fill:#000000;fill-opacity:1;stroke:none;stroke-width:2;stroke-linecap:square;stroke-linejoin:round;stroke-miterlimit:3.9994173;stroke-dasharray:none;stroke-opacity:1" d="m 21.437797,46.750007 c -4.22976,0 -7.66496,3.43519 -7.66496,7.66496 10e-6,3.01284 1.73975,5.62019 4.27137,6.87012 0.76185,0.37615 -0.0695,1.34988 -0.62895,0.71881 -1.4049,-1.58487 -3.45378,-2.58494 -5.73663,-2.58494 -4.2297594,0 -7.6649694,3.43519 -7.6649694,7.66496 0,4.22976 3.43523,7.65804 7.6649694,7.65804 4.19735,0 7.62073,-3.37617 7.66496,-7.56128 0.008,-0.74243 1.14733,-0.81934 1.14733,0.1797 0,1.57322 -1.51247,9.92857 -2.3223,11.52163 0.88393,-0.22289 2.3571,-0.40778 3.26918,-0.40778 0.91209,0 2.38526,0.18489 3.26919,0.40778 -0.80983,-1.59306 -2.3223,-9.94841 -2.3223,-11.52163 0,-0.99904 1.13948,-0.92213 1.14732,-0.1797 0.0442,4.18511 3.46763,7.56128 7.66496,7.56128 4.22977,0 7.66496,-3.42828 7.66496,-7.65804 0,-4.22977 -3.43519,-7.66496 -7.66496,-7.66496 -2.28284,0 -4.33173,1.00007 -5.73662,2.58494 -0.55942,0.63107 -1.39081,-0.34266 -0.62896,-0.71881 2.53162,-1.24993 4.27137,-3.85728 4.27137,-6.87012 0,-4.22977 -3.43519,-7.66496 -7.66496,-7.66496 z" id="path3211" inkscape:connector-curvature="0" />
  <path style="fill:#000000;fill-opacity:1;fill-rule:evenodd;stroke:#000000;stroke-width:0.67787051px;stroke-linecap:butt;stroke-linejoin:miter;stroke-opacity:1" d="m 63.608241,47.319071 c -5.422964,8.134446 -12.540604,12.87954 -12.540604,19.658245 0,6.100834 3.389353,7.456574 5.422964,7.456574 2.711482,0 4.745094,-1.35574 4.745094,-6.100833 0,-1.355742 1.355741,-1.355742 1.355741,0 0,6.778703 -1.355741,6.778703 -2.711482,10.168053 l 7.456575,0 c -1.355741,-3.38935 -2.711482,-3.38935 -2.711482,-10.168053 0,-1.355741 1.355741,-1.355741 1.355741,0 0,5.422963 2.033612,6.100833 4.745094,6.100833 2.033614,0 6.100834,-1.35574 6.100834,-7.456574 0,-6.8671 -7.795511,-11.523799 -13.218475,-19.658245 z" id="path4012" sodipodi:nodetypes="cssccccccssc" inkscape:connector-curvature="0" />
</svg>
